<svg width="32" height="13" viewBox="0 0 32 13" fill="none" xmlns="http://www.w3.org/2000/svg">
<path d="M7.47159 3.5625C7.41856 3.06629 7.19508 2.67992 6.80114 2.40341C6.41099 2.12689 5.90341 1.98864 5.27841 1.98864C4.83902 1.98864 4.46212 2.05492 4.14773 2.1875C3.83333 2.32008 3.5928 2.5 3.42614 2.72727C3.25947 2.95455 3.17424 3.21402 3.17045 3.50568C3.17045 3.74811 3.22538 3.95833 3.33523 4.13636C3.44886 4.31439 3.60227 4.46591 3.79545 4.59091C3.98864 4.71212 4.20265 4.81439 4.4375 4.89773C4.67235 4.98106 4.90909 5.05114 5.14773 5.10795L6.23864 5.38068C6.67803 5.48295 7.10038 5.62121 7.50568 5.79545C7.91477 5.9697 8.2803 6.18939 8.60227 6.45455C8.92803 6.7197 9.18561 7.03977 9.375 7.41477C9.56439 7.78977 9.65909 8.22917 9.65909 8.73295C9.65909 9.41477 9.48485 10.0152 9.13636 10.5341C8.78788 11.0492 8.28409 11.4527 7.625 11.7443C6.9697 12.0322 6.17614 12.1761 5.24432 12.1761C4.33902 12.1761 3.55303 12.036 2.88636 11.7557C2.22348 11.4754 1.70455 11.0663 1.32955 10.5284C0.958333 9.99053 0.757576 9.33523 0.727273 8.5625H2.80114C2.83144 8.9678 2.95644 9.30492 3.17614 9.57386C3.39583 9.8428 3.68182 10.0436 4.03409 10.1761C4.39015 10.3087 4.78788 10.375 5.22727 10.375C5.68561 10.375 6.08712 10.3068 6.43182 10.1705C6.7803 10.0303 7.05303 9.83712 7.25 9.59091C7.44697 9.34091 7.54735 9.04924 7.55114 8.71591C7.54735 8.41288 7.45833 8.16288 7.28409 7.96591C7.10985 7.76515 6.86553 7.59848 6.55114 7.46591C6.24053 7.32955 5.87689 7.20833 5.46023 7.10227L4.13636 6.76136C3.17803 6.51515 2.42045 6.14205 1.86364 5.64205C1.31061 5.13826 1.03409 4.4697 1.03409 3.63636C1.03409 2.95076 1.2197 2.35038 1.59091 1.83523C1.96591 1.32008 2.47538 0.920454 3.11932 0.636363C3.76326 0.348484 4.49242 0.204545 5.30682 0.204545C6.13258 0.204545 6.85606 0.348484 7.47727 0.636363C8.10227 0.920454 8.5928 1.31629 8.94886 1.82386C9.30492 2.32765 9.48864 2.9072 9.5 3.5625H7.47159ZM12.8452 12H10.5952L14.6918 0.363636H17.294L21.3963 12H19.1463L16.0384 2.75H15.9474L12.8452 12ZM12.919 7.4375H19.0554V9.13068H12.919V7.4375ZM22.929 12V0.363636H27.2926C28.1866 0.363636 28.9366 0.518939 29.5426 0.829545C30.1525 1.14015 30.6127 1.57576 30.9233 2.13636C31.2377 2.69318 31.3949 3.3428 31.3949 4.08523C31.3949 4.83144 31.2358 5.47917 30.9176 6.02841C30.6032 6.57386 30.1392 6.99621 29.5256 7.29545C28.9119 7.59091 28.1581 7.73864 27.2642 7.73864H24.1562V5.98864H26.9801C27.5028 5.98864 27.9309 5.91667 28.2642 5.77273C28.5975 5.625 28.8438 5.41098 29.0028 5.13068C29.1657 4.84659 29.2472 4.49811 29.2472 4.08523C29.2472 3.67235 29.1657 3.32008 29.0028 3.02841C28.84 2.73295 28.5919 2.50947 28.2585 2.35795C27.9252 2.20265 27.4953 2.125 26.9688 2.125H25.0369V12H22.929ZM28.9403 6.72727L31.821 12H29.4688L26.6392 6.72727H28.9403Z" fill="black"/>
</svg>
