<svg width="33" height="13" viewBox="0 0 33 13" fill="none" xmlns="http://www.w3.org/2000/svg">
<path d="M7.47159 3.5625C7.41856 3.06629 7.19508 2.67992 6.80114 2.40341C6.41099 2.12689 5.90341 1.98864 5.27841 1.98864C4.83902 1.98864 4.46212 2.05492 4.14773 2.1875C3.83333 2.32008 3.5928 2.5 3.42614 2.72727C3.25947 2.95455 3.17424 3.21402 3.17045 3.50568C3.17045 3.74811 3.22538 3.95833 3.33523 4.13636C3.44886 4.31439 3.60227 4.46591 3.79545 4.59091C3.98864 4.71212 4.20265 4.81439 4.4375 4.89773C4.67235 4.98106 4.90909 5.05114 5.14773 5.10795L6.23864 5.38068C6.67803 5.48295 7.10038 5.62121 7.50568 5.79545C7.91477 5.9697 8.2803 6.18939 8.60227 6.45455C8.92803 6.7197 9.18561 7.03977 9.375 7.41477C9.56439 7.78977 9.65909 8.22917 9.65909 8.73295C9.65909 9.41477 9.48485 10.0152 9.13636 10.5341C8.78788 11.0492 8.28409 11.4527 7.625 11.7443C6.9697 12.0322 6.17614 12.1761 5.24432 12.1761C4.33902 12.1761 3.55303 12.036 2.88636 11.7557C2.22348 11.4754 1.70455 11.0663 1.32955 10.5284C0.958333 9.99053 0.757576 9.33523 0.727273 8.5625H2.80114C2.83144 8.9678 2.95644 9.30492 3.17614 9.57386C3.39583 9.8428 3.68182 10.0436 4.03409 10.1761C4.39015 10.3087 4.78788 10.375 5.22727 10.375C5.68561 10.375 6.08712 10.3068 6.43182 10.1705C6.7803 10.0303 7.05303 9.83712 7.25 9.59091C7.44697 9.34091 7.54735 9.04924 7.55114 8.71591C7.54735 8.41288 7.45833 8.16288 7.28409 7.96591C7.10985 7.76515 6.86553 7.59848 6.55114 7.46591C6.24053 7.32955 5.87689 7.20833 5.46023 7.10227L4.13636 6.76136C3.17803 6.51515 2.42045 6.14205 1.86364 5.64205C1.31061 5.13826 1.03409 4.4697 1.03409 3.63636C1.03409 2.95076 1.2197 2.35038 1.59091 1.83523C1.96591 1.32008 2.47538 0.920454 3.11932 0.636363C3.76326 0.348484 4.49242 0.204545 5.30682 0.204545C6.13258 0.204545 6.85606 0.348484 7.47727 0.636363C8.10227 0.920454 8.5928 1.31629 8.94886 1.82386C9.30492 2.32765 9.48864 2.9072 9.5 3.5625H7.47159ZM21.9361 6.18182C21.9361 7.43561 21.7012 8.50947 21.2315 9.40341C20.7656 10.2936 20.1293 10.9754 19.3224 11.4489C18.5194 11.9223 17.6084 12.1591 16.5895 12.1591C15.5705 12.1591 14.6577 11.9223 13.8509 11.4489C13.0478 10.9716 12.4115 10.2879 11.9418 9.39773C11.4759 8.50379 11.2429 7.43182 11.2429 6.18182C11.2429 4.92803 11.4759 3.85606 11.9418 2.96591C12.4115 2.07197 13.0478 1.38826 13.8509 0.914772C14.6577 0.441287 15.5705 0.204545 16.5895 0.204545C17.6084 0.204545 18.5194 0.441287 19.3224 0.914772C20.1293 1.38826 20.7656 2.07197 21.2315 2.96591C21.7012 3.85606 21.9361 4.92803 21.9361 6.18182ZM19.8168 6.18182C19.8168 5.29924 19.6785 4.55492 19.402 3.94886C19.1293 3.33902 18.7505 2.87879 18.2656 2.56818C17.7808 2.25379 17.2221 2.09659 16.5895 2.09659C15.9569 2.09659 15.3982 2.25379 14.9134 2.56818C14.4285 2.87879 14.0478 3.33902 13.7713 3.94886C13.4986 4.55492 13.3622 5.29924 13.3622 6.18182C13.3622 7.06439 13.4986 7.81061 13.7713 8.42045C14.0478 9.02652 14.4285 9.48674 14.9134 9.80114C15.3982 10.1117 15.9569 10.267 16.5895 10.267C17.2221 10.267 17.7808 10.1117 18.2656 9.80114C18.7505 9.48674 19.1293 9.02652 19.402 8.42045C19.6785 7.81061 19.8168 7.06439 19.8168 6.18182ZM30.2528 3.5625C30.1998 3.06629 29.9763 2.67992 29.5824 2.40341C29.1922 2.12689 28.6847 1.98864 28.0597 1.98864C27.6203 1.98864 27.2434 2.05492 26.929 2.1875C26.6146 2.32008 26.3741 2.5 26.2074 2.72727C26.0407 2.95455 25.9555 3.21402 25.9517 3.50568C25.9517 3.74811 26.0066 3.95833 26.1165 4.13636C26.2301 4.31439 26.3835 4.46591 26.5767 4.59091C26.7699 4.71212 26.9839 4.81439 27.2188 4.89773C27.4536 4.98106 27.6903 5.05114 27.929 5.10795L29.0199 5.38068C29.4593 5.48295 29.8816 5.62121 30.2869 5.79545C30.696 5.9697 31.0616 6.18939 31.3835 6.45455C31.7093 6.7197 31.9669 7.03977 32.1562 7.41477C32.3456 7.78977 32.4403 8.22917 32.4403 8.73295C32.4403 9.41477 32.2661 10.0152 31.9176 10.5341C31.5691 11.0492 31.0653 11.4527 30.4062 11.7443C29.7509 12.0322 28.9574 12.1761 28.0256 12.1761C27.1203 12.1761 26.3343 12.036 25.6676 11.7557C25.0047 11.4754 24.4858 11.0663 24.1108 10.5284C23.7396 9.99053 23.5388 9.33523 23.5085 8.5625H25.5824C25.6127 8.9678 25.7377 9.30492 25.9574 9.57386C26.1771 9.8428 26.4631 10.0436 26.8153 10.1761C27.1714 10.3087 27.5691 10.375 28.0085 10.375C28.4669 10.375 28.8684 10.3068 29.2131 10.1705C29.5616 10.0303 29.8343 9.83712 30.0312 9.59091C30.2282 9.34091 30.3286 9.04924 30.3324 8.71591C30.3286 8.41288 30.2396 8.16288 30.0653 7.96591C29.8911 7.76515 29.6468 7.59848 29.3324 7.46591C29.0218 7.32955 28.6581 7.20833 28.2415 7.10227L26.9176 6.76136C25.9593 6.51515 25.2017 6.14205 24.6449 5.64205C24.0919 5.13826 23.8153 4.4697 23.8153 3.63636C23.8153 2.95076 24.0009 2.35038 24.3722 1.83523C24.7472 1.32008 25.2566 0.920454 25.9006 0.636363C26.5445 0.348484 27.2737 0.204545 28.0881 0.204545C28.9138 0.204545 29.6373 0.348484 30.2585 0.636363C30.8835 0.920454 31.3741 1.31629 31.7301 1.82386C32.0862 2.32765 32.2699 2.9072 32.2812 3.5625H30.2528Z" fill="black"/>
</svg>
