<svg width="24" height="24" viewBox="0 0 24 24" fill="none" xmlns="http://www.w3.org/2000/svg">
<mask id="mask0_642_7913" style="mask-type:luminance" maskUnits="userSpaceOnUse" x="0" y="0" width="24" height="24">
<path d="M12 23C13.4448 23.0018 14.8757 22.7181 16.2105 22.1651C17.5453 21.6122 18.7577 20.801 19.7781 19.7781C20.801 18.7577 21.6122 17.5453 22.1651 16.2105C22.7181 14.8757 23.0018 13.4448 23 12C23.0018 10.5552 22.7181 9.12429 22.1651 7.78947C21.6122 6.45466 20.801 5.24225 19.7781 4.22191C18.7577 3.199 17.5453 2.38778 16.2105 1.83486C14.8757 1.28194 13.4448 0.998227 12 1.00001C10.5552 0.998227 9.12429 1.28194 7.78947 1.83486C6.45466 2.38778 5.24225 3.199 4.22191 4.22191C3.199 5.24225 2.38778 6.45466 1.83486 7.78947C1.28194 9.12429 0.998227 10.5552 1.00001 12C0.998227 13.4448 1.28194 14.8757 1.83486 16.2105C2.38778 17.5453 3.199 18.7577 4.22191 19.7781C5.24225 20.801 6.45466 21.6122 7.78947 22.1651C9.12429 22.7181 10.5552 23.0018 12 23Z" fill="#555555" stroke="white" stroke-width="2" stroke-linejoin="round"/>
<path d="M7.59961 11.9999L10.8996 15.2999L17.4996 8.69995" stroke="white" stroke-width="2" stroke-linecap="round" stroke-linejoin="round"/>
</mask>
<g mask="url(#mask0_642_7913)">
<path d="M-1.2002 -1.19995H25.1998V25.2H-1.2002V-1.19995Z" fill="#455A64"/>
</g>
</svg>
