<svg width="28" height="28" viewBox="0 0 28 28" fill="none" xmlns="http://www.w3.org/2000/svg">
<path d="M17.8994 10.0994L10.0994 17.8994M17.8994 17.8994H17.8864M10.1124 10.0994H10.0994M8.39905 23.9002C9.16604 23.9002 9.55084 23.9002 9.90054 24.0302C9.94994 24.0484 9.99804 24.0683 10.0448 24.09C10.3841 24.246 10.6558 24.5164 11.1992 25.0598C12.4498 26.3104 13.0751 26.9357 13.8434 26.9942C13.9474 27.002 14.0514 27.002 14.1554 26.9942C14.9237 26.9357 15.549 26.3104 16.7996 25.0598C17.343 24.5164 17.6147 24.246 17.954 24.09C18.0008 24.0683 18.0485 24.0484 18.097 24.0302C18.448 23.9002 18.8315 23.9002 19.5998 23.9002H19.7428C21.7019 23.9002 22.6821 23.9002 23.2918 23.2918C23.9015 22.6834 23.9002 21.7019 23.9002 19.7428V19.5998C23.9002 18.8328 23.9002 18.448 24.0302 18.0983C24.0484 18.0489 24.0683 18.0008 24.09 17.954C24.246 17.6147 24.5164 17.343 25.0598 16.7996C26.3104 15.549 26.9357 14.9237 26.9942 14.1554C27.002 14.0514 27.002 13.9474 26.9942 13.8434C26.9357 13.0751 26.3104 12.4498 25.0598 11.1992C24.5164 10.6558 24.246 10.3841 24.09 10.0448L24.0302 9.90184C23.9002 9.55084 23.9002 9.16734 23.9002 8.39905V8.25605C23.9002 6.29696 23.9002 5.31676 23.2918 4.70707C22.6834 4.09737 21.7019 4.09867 19.7428 4.09867H19.5998C18.8328 4.09867 18.448 4.09867 18.0983 3.96867L17.954 3.90887C17.6147 3.75287 17.343 3.48247 16.7996 2.93907C15.549 1.68848 14.9237 1.06318 14.1554 1.00468C14.0515 0.998439 13.9473 0.998439 13.8434 1.00468C13.0751 1.06318 12.4498 1.68848 11.1992 2.93907C10.6558 3.48247 10.3841 3.75417 10.0448 3.90887L9.90184 3.96867C9.55084 4.09867 9.16734 4.09867 8.39905 4.09867H8.25605C6.29696 4.09867 5.31676 4.09867 4.70707 4.70707C4.09737 5.31546 4.09867 6.29696 4.09867 8.25605V8.39905C4.09867 9.16604 4.09867 9.55084 3.96867 9.90054C3.9496 9.94994 3.92967 9.99804 3.90887 10.0448C3.75287 10.3841 3.48247 10.6558 2.93907 11.1992C1.68848 12.4498 1.06318 13.0751 1.00468 13.8434C0.998439 13.9473 0.998439 14.0515 1.00468 14.1554C1.06318 14.9237 1.68848 15.549 2.93907 16.7996C3.48247 17.343 3.75417 17.6147 3.90887 17.954C3.93054 18.0008 3.95047 18.0485 3.96867 18.097C4.09867 18.448 4.09867 18.8315 4.09867 19.5998V19.7428C4.09867 21.7019 4.09867 22.6821 4.70707 23.2918C5.31546 23.9015 6.29696 23.9002 8.25605 23.9002H8.39905Z" stroke="black" stroke-width="2" stroke-linecap="round" stroke-linejoin="round"/>
</svg>
