<svg width="32" height="32" viewBox="0 0 32 32" fill="none" xmlns="http://www.w3.org/2000/svg">
<path d="M8 10.6666H13.3333" stroke="black" stroke-width="2" stroke-linecap="round" stroke-linejoin="round"/>
<path d="M29.3333 14C29.3333 13.8973 29.3333 13.2893 29.3307 13.2467C29.2827 12.5787 28.7107 12.0467 27.9907 12.0027C27.9453 12 27.8907 12 27.7787 12H24.3093C21.928 12 20 13.7907 20 16C20 18.2093 21.9293 20 24.3067 20H27.7773C27.8893 20 27.944 20 27.9907 19.9973C28.7107 19.9533 29.284 19.4213 29.3307 18.7533C29.3333 18.7107 29.3333 18.1027 29.3333 18" stroke="black" stroke-width="2" stroke-linecap="round"/>
<path d="M23.9998 17.3333C24.7362 17.3333 25.3332 16.7363 25.3332 16C25.3332 15.2636 24.7362 14.6666 23.9998 14.6666C23.2635 14.6666 22.6665 15.2636 22.6665 16C22.6665 16.7363 23.2635 17.3333 23.9998 17.3333Z" fill="black"/>
<path d="M17.3332 5.33331C22.3612 5.33331 24.8758 5.33331 26.4372 6.89598C27.5158 7.97331 27.8505 9.50398 27.9532 12M13.3332 26.6666H17.3332C22.3612 26.6666 24.8758 26.6666 26.4372 25.104C27.5158 24.0266 27.8505 22.496 27.9532 20M11.9998 5.33331C7.84784 5.34665 5.6465 5.47731 4.22917 6.89598C2.6665 8.45731 2.6665 10.972 2.6665 16C2.6665 21.028 2.6665 23.5426 4.22917 25.104C5.09984 25.976 6.2665 26.3613 7.99984 26.5306" stroke="black" stroke-width="2" stroke-linecap="round"/>
</svg>
